#define Soccer-Ball-icon_width 14
#define Soccer-Ball-icon_height 14
static char Soccer-Ball-icon_bits[] = {
  0xF0, 0x07, 0xF8, 0x04, 0x46, 0x08, 0x42, 0x18, 0xE7, 0x3C, 0x19, 0x33, 
  0x01, 0x23, 0x11, 0x20, 0x3B, 0x33, 0xC7, 0x3C, 0x47, 0x18, 0xC4, 0x0C, 
  0xE8, 0x0C, 0xF0, 0x03, };
