#define 26949_width 14
#define 26949_height 14
static char 26949_bits[] = {
  0x40, 0x00, 0xC0, 0x00, 0xC0, 0x00, 0xE0, 0x01, 0xE0, 0x01, 0xF8, 0x07, 
  0xF0, 0x03, 0xE0, 0x02, 0xE0, 0x00, 0xC0, 0x00, 0xC0, 0x00, 0xE0, 0x01, 
  0xE0, 0x01, 0xE0, 0x01, };
