#define Soccer-Shoes-icon_width 16
#define Soccer-Shoes-icon_height 16
static char Soccer-Shoes-icon_bits[] = {
  0x00, 0x00, 0x00, 0x00, 0x00, 0x00, 0x00, 0x00, 0x40, 0x00, 0xB3, 0x03, 
  0x0D, 0x1C, 0x01, 0x60, 0xFF, 0xFF, 0x55, 0xA5, 0xB7, 0x7E, 0x00, 0x00, 
  0x00, 0x00, 0x00, 0x00, 0x00, 0x00, 0x00, 0x00, };
