#define Capital-letter-Y-icon-0926020318_width 14
#define Capital-letter-Y-icon-0926020318_height 14
static char Capital-letter-Y-icon-0926020318_bits[] = {
  0x00, 0x00, 0x0C, 0x06, 0x18, 0x02, 0x10, 0x03, 0x30, 0x03, 0xB0, 0x01, 
  0xE0, 0x00, 0xE0, 0x00, 0xC0, 0x00, 0xC0, 0x00, 0x40, 0x00, 0xC0, 0x00, 
  0x00, 0x00, 0x00, 0x00, };
